PathFileType	4	(X/Y/Z)	C:\Users\Ali Mert BOSTAN\Desktop\Yazýlým\Hacettepe-Bil-D-nem-Proje\basket_Sports2D\basket_Sports2D_px_person00.trc
DataRate	CameraRate	NumFrames	NumMarkers	Units	OrigDataRate	OrigDataStartFrame	OrigNumFrames
120.0	120.0	12	22	m	120.0	166	266
Frame#	Time	Hip			RHip			RKnee			RAnkle			RBigToe			RSmallToe			RHeel			LHip			LKnee			LAnkle			LBigToe			LSmallToe			LHeel			Neck			Head			Nose			RShoulder			RElbow			RWrist			LShoulder			LElbow			LWrist		
		X1	Y1	Z1	X2	Y2	Z2	X3	Y3	Z3	X4	Y4	Z4	X5	Y5	Z5	X6	Y6	Z6	X7	Y7	Z7	X8	Y8	Z8	X9	Y9	Z9	X10	Y10	Z10	X11	Y11	Z11	X12	Y12	Z12	X13	Y13	Z13	X14	Y14	Z14	X15	Y15	Z15	X16	Y16	Z16	X17	Y17	Z17	X18	Y18	Z18	X19	Y19	Z19	X20	Y20	Z20	X21	Y21	Z21	X22	Y22	Z22
166	1.3833333333333333	386.9511282830519	601.4948761542838	0.0	400.2039921781237	598.3522270063859	0.0	414.14499266520573	792.7051945554406	0.0	378.7492878273975	989.2083795991754	0.0	454.7365804027478	1011.8380092559515	0.0	442.24023274640086	1022.6083430700087	0.0	353.05054857640823	1008.0255218997025	0.0	371.3916275868792	596.0910771248612	0.0	376.7432390416683	784.4715472268617	0.0	356.8148831941445	976.5007046062735	0.0	441.1695863975739	997.4522589515198	0.0	428.27043564944523	992.2177754643654	0.0	332.79440026621677	994.74845139718	0.0	390.2136744728275	344.4481236331848	0.0	399.9050477330652	228.48778818439067	0.0	440.95979266179546	288.1984733746746	0.0	414.93195378127575	360.65239100756713	0.0	547.6055848071092	348.6694919002765	0.0	502.1305642102258	257.4257059244836	0.0	362.052557175519	367.5304215565794	0.0	387.14857851470157	347.5475751494871	0.0	434.316380743719	258.7362920702922	0.0
167	1.3916666666666666	387.186243345728	601.660651841596	0.0	400.3683380201412	598.5442379348418	0.0	414.25942507843513	792.7740347666088	0.0	378.7949126577835	989.1615499847499	0.0	454.6187342039216	1011.964360072555	0.0	442.1772082210396	1022.7443877352824	0.0	352.9373724349271	1008.0213292748631	0.0	371.7555060079372	596.2731721443096	0.0	376.9644149843998	784.5577120644353	0.0	356.9159786782917	976.3694299749457	0.0	441.2882769857467	997.508927923715	0.0	428.3602086954219	992.1719081085707	0.0	332.7898857316417	994.7434959918257	0.0	390.22938248733294	344.33356276003656	0.0	399.56380534595314	228.37101555569103	0.0	440.91097761923976	288.3002876848396	0.0	415.0544593942228	360.58010618986583	0.0	547.714034012102	347.34428298195155	0.0	501.7093678346562	256.22700653606773	0.0	362.2472182289454	367.3885387652344	0.0	387.6055219317354	346.7428079174304	0.0	434.53348532881137	257.23521128365394	0.0
168	1.4	387.42273429897875	601.8108043081693	0.0	400.53107658619973	598.7395968282812	0.0	414.3777676971592	792.8076375772065	0.0	378.8739359280705	989.1166073525502	0.0	454.4894191579351	1012.0904179553355	0.0	442.0968186799085	1022.8423665818134	0.0	352.84512548468865	1008.0352170131952	0.0	372.1074137580862	596.429748443656	0.0	377.1531838815523	784.6274041853292	0.0	356.9855001833921	976.2317619764056	0.0	441.38245107891413	997.5347644677163	0.0	428.3522236387439	992.0920938649651	0.0	332.7984600330511	994.7445538078891	0.0	390.2529098838668	344.1885735405369	0.0	399.21384892551686	228.3090086138119	0.0	440.84696827883005	288.4244793590053	0.0	415.2281887366129	360.5190893800283	0.0	547.7654556625318	346.041385624699	0.0	501.2529536397288	255.03016125064298	0.0	362.449895402247	367.2573108563723	0.0	388.0992748942449	345.9842361125463	0.0	434.7464811324852	255.84496438272964	0.0
169	1.4083333333333332	387.65889497223907	601.9167411783015	0.0	400.6873261273956	598.9088477729903	0.0	414.4961959419222	792.7997367485243	0.0	378.96860099214007	989.0722427823927	0.0	454.3594670533392	1012.2155971218324	0.0	442.0016700811642	1022.8952765215341	0.0	352.76406461667557	1008.0613502838412	0.0	372.4436464955607	596.5349776829214	0.0	377.31247720763866	784.6701584840694	0.0	357.0240542979175	976.0993796578798	0.0	441.4648313573926	997.5375462788911	0.0	428.2838041671751	991.9855900952142	0.0	332.81655347501373	994.7570610658751	0.0	390.2928550652742	344.02127312830095	0.0	398.8738933754533	228.2849630824895	0.0	440.7821886357722	288.54938437004637	0.0	415.43713121612427	360.4581752264878	0.0	547.7656999794785	344.7617040616346	0.0	500.7451253565277	253.83665686456897	0.0	362.66064078924194	367.13885529217373	0.0	388.58698854882726	345.2598138485554	0.0	434.92499140517725	254.5727961758125	0.0
170	1.4166666666666667	387.89200144043883	601.9501293369646	0.0	400.83180011537377	599.0245542899546	0.0	414.6092994703422	792.7485194694151	0.0	379.06061940383177	989.0355719563797	0.0	454.24779927212006	1012.3386893184509	0.0	441.8970953662469	1022.9134822781532	0.0	352.68546605815135	1008.1053907765587	0.0	372.7663305822062	596.573133775639	0.0	377.4572129560496	784.6751868837317	0.0	357.03726473090984	975.9842489611145	0.0	441.5591494639692	997.5286670027887	0.0	428.21172279221395	991.8638492122886	0.0	332.83954198431167	994.7840338659805	0.0	390.35686781649184	343.8419174733868	0.0	398.5517645269057	228.27656093271386	0.0	440.7177775047724	288.65766977341747	0.0	415.6621973895634	360.3872405644233	0.0	547.7260219899615	343.5031463030919	0.0	500.1759102781376	252.65202930966956	0.0	362.8774394891949	367.0364323170861	0.0	389.0546296071501	344.5479153347778	0.0	435.05440248312294	253.42509162422155	0.0
171	1.425	388.119758128992	601.8916463689446	0.0	400.96180896223825	599.0632828361208	0.0	414.71739225304674	792.6553734124013	0.0	379.1366206337794	989.0183938916825	0.0	454.16510540138415	1012.4569316690776	0.0	441.7811861837719	1022.9176785660243	0.0	352.5996878337455	1008.1752244825108	0.0	373.0799106953383	596.5365689992487	0.0	377.60681626979476	784.6367263702986	0.0	357.0342323496237	975.8993300848737	0.0	441.6807798097414	997.5193296056074	0.0	428.18109742312424	991.7425751311753	0.0	332.863457520159	994.8278958670625	0.0	390.4460062975473	343.6643794599281	0.0	398.2505230145907	228.26113232430768	0.0	440.65204788644945	288.7361000419921	0.0	415.88628743769175	360.3003748071458	0.0	547.661559972519	342.26267408811833	0.0	499.5408387757744	251.48289281103678	0.0	363.09479295519316	366.95232717135156	0.0	389.50427558010824	343.8376969853753	0.0	435.1333452023861	252.40189514051667	0.0
172	1.4333333333333333	388.3426916013386	601.7404640763332	0.0	401.08111736106014	599.0127843211484	0.0	414.82685674071945	792.5340538629367	0.0	379.18695246714833	989.0303827221417	0.0	454.1005616193959	1012.5664197540052	0.0	441.6428648037762	1022.9273519526616	0.0	352.4955313091556	1008.2713194307368	0.0	373.38885855155183	596.424518993846	0.0	377.772795994304	784.5667740747299	0.0	357.0213956862538	975.8546915377866	0.0	441.82370874575736	997.5167947914065	0.0	428.2070749247152	991.6357986432819	0.0	332.8851507268646	994.8936579819732	0.0	390.55435459644247	343.50166811087746	0.0	397.9736154136833	228.2236238452011	0.0	440.58968416102897	288.7761704962257	0.0	416.0935963429722	360.1960159691777	0.0	547.5877513630958	341.03679166986296	0.0	498.8419027958917	250.33657398597438	0.0	363.3018778057078	366.8869546398429	0.0	389.9332081859478	343.14319637622367	0.0	435.1673116816195	251.4973874864136	0.0
173	1.4416666666666667	388.5640016012016	601.5126130048918	0.0	401.19845987092356	598.8786352054832	0.0	414.94052424563154	792.4122506678118	0.0	379.2046213257339	989.0763378074876	0.0	454.04148079989164	1012.6640248625557	0.0	441.4783125950632	1022.9556027498015	0.0	352.3684780481688	1008.3907826778005	0.0	373.7005992118587	596.2460814884743	0.0	377.9582726311353	784.4936463926673	0.0	356.99899022745336	975.8516832505679	0.0	441.9759604184992	997.5239648479759	0.0	428.2880113820891	991.5522789033419	0.0	332.9001739550442	994.9807622241966	0.0	390.6731999397337	343.36215306967017	0.0	397.72018552734215	228.161918613086	0.0	440.53075444221184	288.7760565850475	0.0	416.27214518333574	360.0774684251249	0.0	547.5143847885679	339.81826299761013	0.0	498.09175605300123	249.22272425114087	0.0	363.4855299004923	366.8390146472658	0.0	390.3430092050523	342.4751846374662	0.0	435.16814578456257	250.6970846801112	0.0
174	1.45	388.78824459459145	601.2306331000325	0.0	401.32195972435966	598.6775230720132	0.0	415.05152331147235	792.3186939916991	0.0	379.1847746031276	989.1577693300325	0.0	453.98887960062194	1012.7495861013094	0.0	441.29903046875387	1023.0101722040915	0.0	352.2231206469171	1008.5359263628272	0.0	374.02718501789684	596.0172954679526	0.0	378.1652900905457	784.4460600784729	0.0	356.96544201093093	975.8859353039951	0.0	442.1354284710439	997.5436264075718	0.0	428.4263106793278	991.4995239086053	0.0	332.902263581248	995.0824792138935	0.0	390.79536600393374	343.25001732873517	0.0	397.4851980620013	228.07926633898728	0.0	440.4633863288888	288.7393418130236	0.0	416.42005359083896	359.9503031173981	0.0	547.4454496134229	338.595397119989	0.0	497.31484406783056	248.15240208782834	0.0	363.63818500805803	366.80376229143656	0.0	390.7538175788391	341.82025279817753	0.0	435.1591686335391	249.98236007973676	0.0
175	1.4583333333333333	389.02258172391544	600.9204908524401	0.0	401.45750334741376	598.4286710424004	0.0	415.15160360953763	792.2732927857568	0.0	379.1244475923501	989.2760479226587	0.0	453.94299148244187	1012.8239264079689	0.0	441.12046638517967	1023.0926592781962	0.0	352.0653348351126	1008.7103845795177	0.0	374.3801939042438	595.7559363891519	0.0	378.3944973078858	784.4452945908257	0.0	356.9223926698047	975.9578520566449	0.0	442.300101170854	997.5809933820674	0.0	428.62463356453793	991.4869602304633	0.0	332.8865184091765	995.2010364116531	0.0	390.91768935239656	343.16478340020024	0.0	397.2675868636327	227.97321136140346	0.0	440.3813339451489	288.6714235753155	0.0	416.5459497239804	359.81803545317763	0.0	547.3849313898834	337.357668955821	0.0	496.5390089984227	247.1327908028886	0.0	363.7627927387199	366.7728799210303	0.0	391.185922971125	341.16326725648497	0.0	435.1662432080469	249.34187745919235	0.0
176	1.4666666666666666	389.2788512431324	600.616217846468	0.0	401.6109675202223	598.157691918511	0.0	415.24336799131055	792.2870144880617	0.0	379.0250873030268	989.4342192188618	0.0	453.8955962580766	1012.8843894580373	0.0	440.9546878030891	1023.1963548063407	0.0	351.8986670831607	1008.9093912108513	0.0	374.7647888666223	595.4839435472479	0.0	378.6424509808859	784.5071261666003	0.0	356.8746337636383	976.0772319806	0.0	442.45589918886884	997.6405516627988	0.0	428.8716098439423	991.5232283521813	0.0	332.85364695614453	995.3524803142293	0.0	391.0397359741102	343.1020399918176	0.0	397.0730178029689	227.83400622243923	0.0	440.3008633408224	288.57482883315055	0.0	416.66290849037523	359.68238223316064	0.0	547.3386367023747	336.10290717759	0.0	495.78515872254576	246.1647498455393	0.0	363.8698071235341	366.73864638834834	0.0	391.6377769687941	340.50963348150964	0.0	435.19615281791374	248.7731697450253	0.0
177	1.475	389.5715561825794	600.3571467866445	0.0	401.78809209237704	597.9008771872224	0.0	415.338303244842	792.3623705428906	0.0	378.89562807356083	989.6336167271279	0.0	453.849529576569	1012.9263633781094	0.0	440.81700176375455	1023.3115468656212	0.0	351.7283930388406	1009.1206483940596	0.0	375.1817481493795	595.2333238981386	0.0	378.90624497861495	784.6393226508376	0.0	356.8296235741404	976.2536836440041	0.0	442.5901440650053	997.722956950305	0.0	429.1511887495836	991.6138253347465	0.0	332.81069838446575	995.5480234705503	0.0	391.15979858201626	343.05729465007613	0.0	396.9069587559412	227.64931677609064	0.0	440.2485097158179	288.4440808044774	0.0	416.7829335865577	359.5466158504241	0.0	547.3106307941312	334.83945438161055	0.0	495.0661504212697	245.24502474561677	0.0	363.9702037844724	366.6973756254983	0.0	392.09555331527434	339.868168475807	0.0	435.23133923429987	248.26744234907727	0.0
